<svg width="256" height="256" viewBox="0 0 256 256" fill="none" xmlns="http://www.w3.org/2000/svg">
<g clip-path="url(#clip0_5_10)">
<path d="M67.2593 105.037C67.2593 99.7186 62.9479 95.4072 57.6296 95.4072C52.3113 95.4072 48 99.7186 48 105.037V150.963C48 156.281 52.3113 160.592 57.6296 160.592C62.9479 160.592 67.2593 156.281 67.2593 150.963V105.037Z" fill="white" style="fill:white;fill-opacity:1;"/>
<path d="M101.334 87.2585C101.334 81.9402 97.0227 77.6289 91.7044 77.6289C86.3861 77.6289 82.0747 81.9402 82.0747 87.2585V168.74C82.0747 174.058 86.3861 178.37 91.7044 178.37C97.0227 178.37 101.334 174.058 101.334 168.74V87.2585Z" fill="white" style="fill:white;fill-opacity:1;"/>
<path d="M137.631 57.6296C137.631 52.3113 133.32 48 128.001 48C122.683 48 118.372 52.3113 118.372 57.6296V198.37C118.372 203.689 122.683 208 128.001 208C133.32 208 137.631 203.689 137.631 198.37V57.6296Z" fill="white" style="fill:white;fill-opacity:1;"/>
<path d="M173.927 81.3357C173.927 76.0174 169.616 71.7061 164.298 71.7061C158.98 71.7061 154.668 76.0174 154.668 81.3357V174.669C154.668 179.987 158.98 184.299 164.298 184.299C169.616 184.299 173.927 179.987 173.927 174.669V81.3357Z" fill="white" style="fill:white;fill-opacity:1;"/>
<path d="M208 103.557C208 98.2391 203.689 93.9277 198.37 93.9277C193.052 93.9277 188.741 98.2391 188.741 103.557V152.446C188.741 157.765 193.052 162.076 198.37 162.076C203.689 162.076 208 157.765 208 152.446V103.557Z" fill="white" style="fill:white;fill-opacity:1;"/>
</g>
<defs>
<clipPath id="clip0_5_10">
<rect width="256" height="256" rx="40" fill="white" style="fill:white;fill-opacity:1;"/>
</clipPath>
</defs>
</svg>
